<svg width="16" height="16" viewBox="0 0 16 16" fill="none" xmlns="http://www.w3.org/2000/svg">
<path d="M4.0625 3.70312C4.0625 2.08984 5.375 0.75 7.01562 0.75C8.62891 0.75 9.96875 2.08984 9.96875 3.70312V10.1562C9.96875 11.25 9.06641 12.125 8 12.125C6.90625 12.125 6.03125 11.25 6.03125 10.1562V4.90625C6.03125 4.55078 6.30469 4.25 6.6875 4.25C7.04297 4.25 7.34375 4.55078 7.34375 4.90625V10.1562C7.34375 10.5391 7.61719 10.8125 8 10.8125C8.35547 10.8125 8.65625 10.5391 8.65625 10.1562V3.70312C8.65625 2.80078 7.91797 2.0625 7.01562 2.0625C6.08594 2.0625 5.375 2.80078 5.375 3.70312V10.8125C5.375 12.2617 6.55078 13.4375 8 13.4375C9.44922 13.4375 10.625 12.2617 10.625 10.8125V4.90625C10.625 4.55078 10.8984 4.25 11.2812 4.25C11.6367 4.25 11.9375 4.55078 11.9375 4.90625V10.8125C11.9375 13 10.1602 14.75 8 14.75C5.8125 14.75 4.0625 13 4.0625 10.8125V3.70312Z" fill="white"/>
</svg>
