<svg width="16" height="16" viewBox="0 0 16 16" fill="none" xmlns="http://www.w3.org/2000/svg">
<path d="M3.11328 7.58984L7.61328 3.11328C7.82422 2.87891 8.17578 2.87891 8.41016 3.11328C8.62109 3.32422 8.62109 3.67578 8.41016 3.88672L4.28516 7.98828L8.38672 12.1133C8.62109 12.3242 8.62109 12.6758 8.38672 12.8867C8.17578 13.1211 7.82422 13.1211 7.61328 12.8867L3.11328 8.38672C2.87891 8.17578 2.87891 7.82422 3.11328 7.58984ZM12.1133 3.08984V3.11328C12.3242 2.87891 12.6758 2.87891 12.9102 3.11328C13.1211 3.32422 13.1211 3.67578 12.9102 3.88672L8.78516 8.01172L12.8867 12.1133C13.1211 12.3242 13.1211 12.6758 12.8867 12.8867C12.6758 13.1211 12.3242 13.1211 12.1133 12.8867L7.61328 8.38672C7.37891 8.17578 7.37891 7.82422 7.61328 7.58984L12.1133 3.08984Z" fill="white"/>
</svg>
