<svg width="16" height="16" viewBox="0 0 16 16" fill="none" xmlns="http://www.w3.org/2000/svg">
<path d="M13.4609 3.83594L10.2734 7H12.3125C12.6172 7 12.875 7.25781 12.875 7.5625C12.875 7.89062 12.6172 8.125 12.3125 8.125H8.9375C8.60938 8.125 8.375 7.89062 8.375 7.5625V4.1875C8.375 3.88281 8.60938 3.625 8.9375 3.625C9.24219 3.625 9.5 3.88281 9.5 4.1875V6.22656L12.6641 3.0625C12.875 2.82812 13.2266 2.82812 13.4609 3.0625C13.6719 3.27344 13.6719 3.625 13.4609 3.83594ZM2.53906 13.1641L5.70312 10H3.6875C3.35938 10 3.125 9.76562 3.125 9.4375C3.125 9.13281 3.35938 8.875 3.6875 8.875H7.03906C7.36719 8.875 7.60156 9.13281 7.60156 9.4375V12.8125C7.60156 13.1406 7.36719 13.375 7.03906 13.375C6.73438 13.375 6.47656 13.1406 6.47656 12.8125V10.7969L3.3125 13.9609C3.10156 14.1953 2.75 14.1953 2.53906 13.9609C2.30469 13.75 2.30469 13.3984 2.53906 13.1641Z" fill="white"/>
</svg>
