<svg width="16" height="16" viewBox="0 0 16 16" fill="none" xmlns="http://www.w3.org/2000/svg">
<path d="M8.92969 6.28906L12.0938 3.125H10.0781C9.75 3.125 9.51562 2.89062 9.51562 2.5625C9.51562 2.25781 9.75 2 10.0781 2H13.4297C13.7578 2 13.9922 2.25781 13.9922 2.5625V5.9375C13.9922 6.26562 13.7578 6.5 13.4297 6.5C13.125 6.5 12.8672 6.26562 12.8672 5.9375V3.92188L9.70312 7.08594C9.49219 7.32031 9.14062 7.32031 8.92969 7.08594C8.69531 6.875 8.69531 6.52344 8.92969 6.28906ZM7.10156 9.71094L3.91406 12.875H5.95312C6.25781 12.875 6.51562 13.1328 6.51562 13.4375C6.51562 13.7656 6.25781 14 5.95312 14H2.57812C2.25 14 2.01562 13.7656 2.01562 13.4375V10.0625C2.01562 9.75781 2.25 9.5 2.57812 9.5C2.88281 9.5 3.14062 9.75781 3.14062 10.0625V12.1016L6.30469 8.9375C6.51562 8.70312 6.86719 8.70312 7.10156 8.9375C7.3125 9.14844 7.3125 9.5 7.10156 9.71094Z" fill="white"/>
</svg>
