<svg width="16" height="16" viewBox="0 0 16 16" fill="none" xmlns="http://www.w3.org/2000/svg">
<path d="M7.10938 3.00391L7.4375 2.11328C7.46094 2.04297 7.53125 1.99609 7.625 1.99609C7.69531 1.99609 7.76562 2.04297 7.78906 2.11328L8.11719 3.00391L9.00781 3.33203C9.07812 3.35547 9.125 3.42578 9.125 3.49609C9.125 3.58984 9.07812 3.66016 9.00781 3.68359L8.11719 4.01172L7.78906 4.87891C7.76562 4.94922 7.69531 4.99609 7.625 4.99609C7.53125 4.99609 7.46094 4.94922 7.4375 4.87891L7.10938 4.01172L6.24219 3.68359C6.17188 3.66016 6.125 3.58984 6.125 3.49609C6.125 3.42578 6.17188 3.35547 6.24219 3.33203L7.10938 3.00391ZM12.4297 3.12109L9.85156 5.69922L10.6719 6.51953L13.25 3.94141L12.4297 3.12109ZM3.5 12.0742L4.29688 12.8711L9.875 7.31641L9.05469 6.49609L3.5 12.0742ZM11.6328 2.34766C12.0781 1.90234 12.7812 1.90234 13.2266 2.34766L14.0234 3.14453C14.4688 3.58984 14.4688 4.29297 14.0234 4.73828L5.09375 13.668C4.64844 14.1133 3.94531 14.1133 3.5 13.668L2.70312 12.8711C2.25781 12.4258 2.25781 11.7227 2.70312 11.2773L11.6328 2.34766ZM1.78906 4.76172L3.125 4.24609L3.61719 2.93359C3.64062 2.81641 3.75781 2.74609 3.875 2.74609C3.96875 2.74609 4.08594 2.81641 4.10938 2.93359L4.625 4.24609L5.9375 4.76172C6.05469 4.78516 6.125 4.90234 6.125 4.99609C6.125 5.11328 6.05469 5.23047 5.9375 5.25391L4.625 5.74609L4.10938 7.08203C4.08594 7.17578 3.96875 7.24609 3.875 7.24609C3.75781 7.24609 3.64062 7.17578 3.61719 7.08203L3.125 5.74609L1.78906 5.25391C1.69531 5.23047 1.625 5.11328 1.625 4.99609C1.625 4.90234 1.69531 4.78516 1.78906 4.76172ZM10.0391 10.7617L11.375 10.2461L11.8672 8.93359C11.8906 8.81641 12.0078 8.74609 12.125 8.74609C12.2188 8.74609 12.3359 8.81641 12.3594 8.93359L12.875 10.2461L14.1875 10.7617C14.3047 10.7852 14.375 10.9023 14.375 10.9961C14.375 11.1133 14.3047 11.2305 14.1875 11.2539L12.875 11.7461L12.3594 13.082C12.3359 13.1758 12.2188 13.2461 12.125 13.2461C12.0078 13.2461 11.8906 13.1758 11.8672 13.082L11.375 11.7461L10.0391 11.2539C9.94531 11.2305 9.875 11.1133 9.875 10.9961C9.875 10.9023 9.94531 10.7852 10.0391 10.7617Z" fill="white"/>
</svg>
