<svg width="20" height="20" viewBox="0 0 20 20" fill="none" xmlns="http://www.w3.org/2000/svg">
<g clip-path="url(#clip0_7123_636)">
<mask id="mask0_7123_636" style="mask-type:luminance" maskUnits="userSpaceOnUse" x="-2" y="-2" width="24" height="24">
<path d="M-2 -2H22V22H-2V-2Z" fill="white"/>
</mask>
<g mask="url(#mask0_7123_636)">
<path d="M7.10156 5.56641H9.60156V6.39974H8.76823V7.23307H9.60156V8.06641H7.9349V6.39974H7.10156V5.56641Z" fill="#564922"/>
<path d="M7.09896 6.39974H6.26562V8.89974H7.93229V8.06641H7.09896V6.39974ZM12.099 5.56641H11.2656V7.23307H12.099V8.06641H11.2656V8.89974H14.599V8.06641H12.9323V7.23307H12.099V5.56641Z" fill="#564922"/>
<path fill-rule="evenodd" clip-rule="evenodd" d="M13.7708 4.73307V3.06641H16.2708V5.56641H14.6042V4.73307H13.7708ZM4.60417 12.2331V11.3997H2.9375V13.0664H3.77083V13.8997H4.60417V13.0664H5.4375V12.2331H4.60417ZM12.1042 5.56641H12.9375V6.39974H13.7708V7.23307H15.4375V8.06641H12.9375V7.23307H12.1042V5.56641ZM7.9375 8.06641H9.60417V7.23307H8.77083V6.39974H9.60417V5.56641H11.2708V7.23307H12.1042V8.06641H11.2708V8.89974H13.7708V9.73307H7.9375V8.06641ZM7.9375 8.06641H7.10417V6.39974H7.9375V8.06641Z" fill="#FFB35A"/>
<path d="M12.1016 3.89844V4.73177H14.6016V5.5651H7.10156V4.73177H7.9349V3.89844H12.1016Z" fill="#F83810"/>
<path fill-rule="evenodd" clip-rule="evenodd" d="M9.59896 9.73242H8.76563V10.5658H9.59896V12.2324H8.76563V13.0658H7.93229V12.2324H6.26562V13.8991H7.09896V14.7324H6.26562V16.3991H8.76563V15.5658H12.099V14.7324H14.599V12.2324H13.7656V10.5658H12.9323V9.73242H12.099V10.5658H12.9323V11.3991H10.4323V10.5658H9.59896V9.73242ZM13.7656 12.2324H12.9323V13.0658H13.7656V12.2324ZM10.4323 12.2324V13.0658H11.2656V12.2324H10.4323Z" fill="#F83810"/>
<path fill-rule="evenodd" clip-rule="evenodd" d="M13.7656 7.23307V5.56641H16.2656V8.06641H15.4323V7.23307H13.7656ZM15.4323 8.06641V8.89974H14.599V8.06641H15.4323ZM9.59896 12.2331H8.76563V13.0664H7.93229V12.2331H4.59896V11.3997H3.76562V10.5664H5.43229V9.73307H8.76563V10.5664H9.59896V12.2331ZM12.9323 10.5664V11.3997H10.4323V10.5664H9.59896V9.73307H12.099V10.5664H12.9323ZM12.9323 10.5664V9.73307H13.7656V10.5664H12.9323ZM6.26563 13.8997H7.09896V14.7331H6.26563V15.5664H4.59896V16.3997H3.76562V14.7331H4.59896V13.8997H5.43229V13.0664H6.26563V13.8997ZM16.2656 10.5664H15.4323V12.2331H14.599V14.7331H16.2656V10.5664Z" fill="#8B7318"/>
<path d="M7.10156 5.56641H9.60156V6.39974H8.76823V7.23307H9.60156V8.06641H7.9349V6.39974H7.10156V5.56641Z" fill="#463C1D"/>
<path d="M7.09896 6.39974H6.26562V8.89974H7.93229V8.06641H7.09896V6.39974ZM12.099 5.56641H11.2656V7.23307H12.099V8.06641H11.2656V8.89974H14.599V8.06641H12.9323V7.23307H12.099V5.56641Z" fill="#463C1D"/>
<path d="M14.6016 8.06641H15.4349V8.89974H14.6016V8.06641Z" fill="#795F04"/>
<path d="M15.4349 7.23372H16.2682V8.06706H15.4349V7.23372ZM15.4349 6.40039H16.2682V7.23372H15.4349V6.40039ZM14.6016 6.40039H15.4349V7.23372H14.6016V6.40039Z" fill="#81690E"/>
<path d="M13.7656 6.39974H14.599V7.23307H13.7656V6.39974ZM13.7656 5.56641H14.599V6.39974H13.7656V5.56641Z" fill="#6F5702"/>
<path d="M14.6016 5.56641H15.4349V6.39974H14.6016V5.56641ZM15.4349 5.56641H16.2682V6.39974H15.4349V5.56641Z" fill="#81690E"/>
<path d="M4.60417 11.3997H2.9375V13.0664H3.77083V13.8997H4.60417V13.0664H5.4375V12.2331H4.60417V11.3997ZM13.7708 3.06641H16.2708V5.56641H14.6042V4.73307H13.7708V3.06641Z" fill="#FFB259"/>
<path d="M12.9375 12.2344H13.7708V13.0677H12.9375V12.2344ZM10.4375 12.2344H11.2708V13.0677H10.4375V12.2344Z" fill="#F5A253"/>
<path d="M11.2656 8.90039H12.099V9.73372H11.2656V8.90039ZM12.099 8.90039H12.9323V9.73372H12.099V8.90039ZM12.9323 8.90039H13.7656V9.73372H12.9323V8.90039Z" fill="#F2AB52"/>
<path d="M10.4375 8.89974H11.2708V9.73307H10.4375V8.89974ZM10.4375 8.06641H11.2708V8.89974H10.4375V8.06641ZM10.4375 7.23307H11.2708V8.06641H10.4375V7.23307ZM13.7708 7.23307H14.6042V8.06641H13.7708V7.23307ZM12.1042 6.39974H12.9375V7.23307H12.1042V6.39974ZM12.1042 5.56641H12.9375V6.39974H12.1042V5.56641ZM14.6042 7.23307H15.4375V8.06641H14.6042V7.23307ZM12.9375 6.39974H13.7708V7.23307H12.9375V6.39974ZM10.4375 6.39974H11.2708V7.23307H10.4375V6.39974Z" fill="#FFB35A"/>
<path d="M10.4375 5.56641H11.2708V6.39974H10.4375V5.56641Z" fill="#E8A148"/>
<path d="M11.2656 7.23242H12.099V8.06576H11.2656V7.23242ZM12.9323 7.23242H13.7656V8.06576H12.9323V7.23242Z" fill="#F2AB52"/>
<path d="M9.60156 8.90039H10.4349V9.73372H9.60156V8.90039ZM9.60156 8.06706H10.4349V8.90039H9.60156V8.06706ZM9.60156 7.23372H10.4349V8.06706H9.60156V7.23372ZM9.60156 6.40039H10.4349V7.23372H9.60156V6.40039Z" fill="#FFB35A"/>
<path d="M9.60156 5.56641H10.4349V6.39974H9.60156V5.56641Z" fill="#E8A148"/>
<path d="M8.76823 6.40039H9.60156V7.23372H8.76823V6.40039ZM8.76823 8.90039H9.60156V9.73372H8.76823V8.90039ZM8.76823 8.06706H9.60156V8.90039H8.76823V8.06706ZM7.9349 8.90039H8.76823V9.73372H7.9349V8.90039ZM7.9349 8.06706H8.76823V8.90039H7.9349V8.06706ZM7.10156 7.23372H7.9349V8.06706H7.10156V7.23372ZM7.10156 6.40039H7.9349V7.23372H7.10156V6.40039Z" fill="#FFB35A"/>
<path d="M11.2708 3.89844H12.1042V4.73177H11.2708V3.89844ZM7.9375 3.89844H8.77083V4.73177H7.9375V3.89844Z" fill="#E4240A"/>
<path d="M11.2682 3.89844H8.76823V4.73177H7.10156V5.5651H14.6016V4.73177H11.2682V3.89844Z" fill="#F83810"/>
<path fill-rule="evenodd" clip-rule="evenodd" d="M8.76563 9.73242H9.59896V10.5658H8.76563V9.73242ZM12.9323 10.5658V11.3991H10.4323V10.5658H9.59896V12.2324H8.76563V13.0658H7.93229V12.2324H6.26562V13.8991H7.09896V14.7324H6.26562V15.5658H8.76563V14.7324H14.599V12.2324H13.7656V10.5658H12.9323ZM12.9323 10.5658V9.73242H12.099V10.5658H12.9323ZM13.7656 12.2324V13.0658H12.9323V12.2324H13.7656ZM10.4323 13.0658V12.2324H11.2656V13.0658H10.4323Z" fill="#F83810"/>
<path d="M8.76563 14.7324H12.099V15.5658H8.76563V14.7324ZM8.76563 15.5658V16.3991H6.26562V15.5658H8.76563Z" fill="#D01000"/>
<path fill-rule="evenodd" clip-rule="evenodd" d="M11.2708 10.5664H10.4375V11.3997H12.9375V10.5664H11.2708Z" fill="#8B7318"/>
<path d="M12.9297 9.73242H13.763V10.5658H12.9297V9.73242Z" fill="#81690E"/>
<path fill-rule="evenodd" clip-rule="evenodd" d="M10.4349 9.73242H9.60156V10.5658H12.1016V9.73242H10.4349Z" fill="#81690E"/>
<path d="M8.76823 10.5664H4.60156V12.2331H8.76823V10.5664Z" fill="#8B7318"/>
<path d="M3.76562 10.5664H4.59896V11.3997H3.76562V10.5664Z" fill="#6D550A"/>
<path d="M7.9349 9.73242H8.76823V10.5658H7.9349V9.73242ZM7.10156 9.73242H7.9349V10.5658H7.10156V9.73242Z" fill="#81690E"/>
<path d="M6.26562 9.73242H7.09896V10.5658H6.26562V9.73242Z" fill="#775F04"/>
<path d="M5.42969 9.73242H6.26302V10.5658H5.42969V9.73242Z" fill="#6D5500"/>
<path d="M9.59896 10.5664H8.76563V12.2331H7.93229V13.0664H8.76563V12.2331H9.59896V10.5664ZM6.26563 13.8997H7.09896V14.7331H6.26563V15.5664H4.59896V16.3997H3.76562V14.7331H4.59896V13.8997H5.43229V13.0664H6.26563V13.8997Z" fill="#8B7318"/>
<path fill-rule="evenodd" clip-rule="evenodd" d="M16.2682 10.5664H15.4349V12.2331H14.6016V14.7331H16.2682V10.5664Z" fill="#8B7318"/>
</g>
</g>
<defs>
<clipPath id="clip0_7123_636">
<rect width="20" height="20" rx="3" fill="white"/>
</clipPath>
</defs>
</svg>
