<svg width="16" height="16" viewBox="0 0 16 16" fill="none" xmlns="http://www.w3.org/2000/svg">
<path d="M9.66406 4.01562L11 3.5L11.4922 2.1875C11.5156 2.07031 11.6328 2 11.75 2C11.8438 2 11.9609 2.07031 11.9844 2.1875L12.5 3.5L13.8125 4.01562C13.9297 4.03906 14 4.15625 14 4.25C14 4.36719 13.9297 4.48438 13.8125 4.50781L12.5 5L11.9844 6.33594C11.9609 6.42969 11.8438 6.5 11.75 6.5C11.6328 6.5 11.5156 6.42969 11.4922 6.33594L11 5L9.66406 4.50781C9.57031 4.48438 9.5 4.36719 9.5 4.25C9.5 4.15625 9.57031 4.03906 9.66406 4.01562ZM6.80469 3.73438L8.02344 6.40625L10.6953 7.625C10.8359 7.69531 10.9297 7.83594 10.9297 7.97656C10.9297 8.11719 10.8359 8.25781 10.6953 8.30469L8.02344 9.54688L6.80469 12.2188C6.73438 12.3594 6.59375 12.4531 6.45312 12.4531C6.3125 12.4531 6.17188 12.3594 6.125 12.2188L4.88281 9.54688L2.21094 8.32812C2.07031 8.25781 2 8.11719 2 7.97656C2 7.83594 2.07031 7.69531 2.21094 7.625L4.88281 6.40625L6.125 3.73438C6.17188 3.59375 6.3125 3.5 6.45312 3.5C6.59375 3.5 6.73438 3.59375 6.80469 3.73438ZM11 11L11.4922 9.6875C11.5156 9.57031 11.6328 9.5 11.75 9.5C11.8438 9.5 11.9609 9.57031 11.9844 9.6875L12.5 11L13.8125 11.5156C13.9297 11.5391 14 11.6562 14 11.75C14 11.8672 13.9297 11.9844 13.8125 12.0078L12.5 12.5L11.9844 13.8359C11.9609 13.9297 11.8438 14 11.75 14C11.6328 14 11.5156 13.9297 11.4922 13.8359L11 12.5L9.66406 12.0078C9.57031 11.9844 9.5 11.8672 9.5 11.75C9.5 11.6562 9.57031 11.5391 9.66406 11.5156L11 11Z" fill="white"/>
</svg>
